<?xml version="1.0" standalone="no"?>
<!DOCTYPE svg PUBLIC "-//W3C//DTD SVG 20010904//EN"
 "http://www.w3.org/TR/2001/REC-SVG-20010904/DTD/svg10.dtd">
<svg version="1.0" xmlns="http://www.w3.org/2000/svg"
 width="500.000000pt" height="500.000000pt" viewBox="0 0 500.000000 500.000000"
 preserveAspectRatio="xMidYMid meet">

<g transform="translate(0.000000,500.000000) scale(0.100000,-0.100000)"
fill="#000000" stroke="none">
<path d="M2467 4308 c-14 -14 -137 -266 -297 -611 -172 -370 -285 -601 -306
-626 -43 -49 -68 -62 -719 -366 -302 -141 -553 -261 -557 -268 -12 -19 -9 -64
5 -74 6 -6 266 -128 577 -273 311 -144 583 -273 605 -285 49 -28 90 -68 119
-115 12 -19 143 -295 292 -614 203 -438 274 -581 291 -589 52 -24 54 -18 337
589 147 319 283 602 302 629 18 28 55 64 81 82 26 17 307 152 623 299 316 147
581 271 588 277 13 10 16 55 4 74 -4 7 -277 137 -607 291 -548 254 -604 283
-650 328 -47 46 -68 87 -324 639 -250 539 -300 635 -331 635 -5 0 -20 -10 -33
-22z"/>
</g>
</svg>
